<svg width="281" height="274" viewBox="0 0 281 274" fill="none" xmlns="http://www.w3.org/2000/svg">
<path d="M281 175.5C281 229.9 234.704 274 142.7 274C50.696 274 0 229.9 0 175.5C0 121.1 50.696 77 142.7 77C234.704 77 281 121.1 281 175.5Z" fill="#D9D9D9"/>
<ellipse cx="93" cy="63.5" rx="38" ry="63.5" fill="#E2DFE3"/>
<ellipse cx="92.5" cy="63.5" rx="15.5" ry="38.5" fill="#F2ADA5"/>
<ellipse cx="181" cy="63.5" rx="38" ry="63.5" fill="#E2DFE3"/>
<ellipse cx="180.5" cy="63.5" rx="15.5" ry="38.5" fill="#F2ADA5"/>
<ellipse cx="95" cy="159" rx="13" ry="17" fill="black"/>
<ellipse cx="183" cy="159" rx="13" ry="17" fill="black"/>
<path d="M157 188.523C157 198.175 150.06 206 141.5 206C132.94 206 126 198.175 126 188.523C126 178.871 132.94 200.021 141.5 200.021C150.06 200.021 157 178.871 157 188.523Z" fill="black"/>
<rect x="138" y="205" width="8" height="24" fill="black"/>
<path d="M142 223.278C142 231.409 132.822 238 121.5 238C110.178 238 101 231.409 101 223.278C101 215.147 110.178 231.4 121.5 231.4C132.822 231.4 142 215.147 142 223.278Z" fill="black"/>
<path d="M184 223.278C184 231.409 174.598 238 163 238C151.402 238 142 231.409 142 223.278C142 215.147 151.402 231.4 163 231.4C174.598 231.4 184 215.147 184 223.278Z" fill="black"/>
<path d="M281 175.5C281 229.9 234.704 274 142.7 274C50.696 274 0 229.9 0 175.5C0 121.1 50.696 77 142.7 77C234.704 77 281 121.1 281 175.5Z" fill="#D9D9D9"/>
<ellipse cx="93" cy="63.5" rx="38" ry="63.5" fill="#E2DFE3"/>
<ellipse cx="92.5" cy="63.5" rx="15.5" ry="38.5" fill="#F2ADA5"/>
<ellipse cx="181" cy="63.5" rx="38" ry="63.5" fill="#E2DFE3"/>
<ellipse cx="180.5" cy="63.5" rx="15.5" ry="38.5" fill="#F2ADA5"/>
<ellipse cx="95" cy="159" rx="13" ry="17" fill="black"/>
<ellipse cx="183" cy="159" rx="13" ry="17" fill="black"/>
<path d="M157 188.523C157 198.175 150.06 206 141.5 206C132.94 206 126 198.175 126 188.523C126 178.871 132.94 200.021 141.5 200.021C150.06 200.021 157 178.871 157 188.523Z" fill="black"/>
<rect x="138" y="205" width="8" height="24" fill="black"/>
<path d="M142 223.278C142 231.409 132.822 238 121.5 238C110.178 238 101 231.409 101 223.278C101 215.147 110.178 231.4 121.5 231.4C132.822 231.4 142 215.147 142 223.278Z" fill="black"/>
<path d="M184 223.278C184 231.409 174.598 238 163 238C151.402 238 142 231.409 142 223.278C142 215.147 151.402 231.4 163 231.4C174.598 231.4 184 215.147 184 223.278Z" fill="black"/>
</svg>

