<svg width="281" height="335" viewBox="0 0 281 335" fill="none" xmlns="http://www.w3.org/2000/svg">
<path d="M281 175.5C281 229.9 234.704 274 142.7 274C50.696 274 0 229.9 0 175.5C0 121.1 50.696 77 142.7 77C234.704 77 281 121.1 281 175.5Z" fill="#D9D9D9"/>
<ellipse cx="93" cy="63.5" rx="38" ry="63.5" fill="#E2DFE3"/>
<ellipse cx="92.5" cy="63.5" rx="15.5" ry="38.5" fill="#F2ADA5"/>
<ellipse cx="181" cy="63.5" rx="38" ry="63.5" fill="#E2DFE3"/>
<ellipse cx="180.5" cy="63.5" rx="15.5" ry="38.5" fill="#F2ADA5"/>
<ellipse cx="95" cy="159" rx="13" ry="17" fill="black"/>
<ellipse cx="183" cy="159" rx="13" ry="17" fill="black"/>
<path d="M157 188.523C157 198.175 150.06 206 141.5 206C132.94 206 126 198.175 126 188.523C126 178.871 132.94 200.021 141.5 200.021C150.06 200.021 157 178.871 157 188.523Z" fill="black"/>
<path d="M281 175.5C281 229.9 234.704 274 142.7 274C50.696 274 0 229.9 0 175.5C0 121.1 50.696 77 142.7 77C234.704 77 281 121.1 281 175.5Z" fill="#D9D9D9"/>
<ellipse cx="93" cy="63.5" rx="38" ry="63.5" fill="#E2DFE3"/>
<ellipse cx="92.5" cy="63.5" rx="15.5" ry="38.5" fill="#F2ADA5"/>
<ellipse cx="181" cy="63.5" rx="38" ry="63.5" fill="#E2DFE3"/>
<ellipse cx="180.5" cy="63.5" rx="15.5" ry="38.5" fill="#F2ADA5"/>
<path d="M157 183.523C157 193.175 150.06 201 141.5 201C132.94 201 126 193.175 126 183.523C126 173.871 132.94 195.021 141.5 195.021C150.06 195.021 157 173.871 157 183.523Z" fill="black"/>
<rect x="110.284" y="137.322" width="10" height="40" rx="5" transform="rotate(45 110.284 137.322)" fill="#262626"/>
<rect x="82.6777" y="144.071" width="10" height="40" rx="5" transform="rotate(-45 82.6777 144.071)" fill="#262626"/>
<rect x="191.284" y="136.322" width="10" height="40" rx="5" transform="rotate(45 191.284 136.322)" fill="#262626"/>
<rect x="163.678" y="143.071" width="10" height="40" rx="5" transform="rotate(-45 163.678 143.071)" fill="#262626"/>
<ellipse cx="143" cy="238.5" rx="23" ry="28.5" fill="black"/>
<path d="M249 135C251.488 135 253.839 135.563 255.638 136.575C257.374 137.552 259 139.214 259 141.5C259 143.786 257.374 145.448 255.638 146.425C253.839 147.437 251.488 148 249 148C246.512 148 244.161 147.437 242.362 146.425C240.626 145.448 239 143.786 239 141.5C239 139.214 240.626 137.552 242.362 136.575C244.161 135.563 246.512 135 249 135Z" fill="black" stroke="#E02121" stroke-width="4"/>
<rect x="30" y="159" width="11" height="125" rx="5.5" fill="#D92020"/>
<rect x="14" y="155" width="13" height="46" rx="6.5" fill="#D92020"/>
<rect x="7" y="150" width="13" height="185" rx="6.5" fill="#D92020"/>
<rect x="21" y="164" width="13" height="60" rx="6.5" fill="#D92020"/>
<path d="M27 129C31.7579 129 35.3425 132.252 37.5186 135.951C39.749 139.743 41 144.719 41 150C41 155.281 39.749 160.257 37.5186 164.049C35.3425 167.748 31.7579 171 27 171C22.2421 171 18.6575 167.748 16.4814 164.049C14.251 160.257 13 155.281 13 150C13 144.719 14.251 139.743 16.4814 135.951C18.6575 132.252 22.2421 129 27 129Z" fill="black" stroke="#D92020" stroke-width="8"/>
</svg>