<svg width="359" height="253" viewBox="0 0 359 253" fill="none" xmlns="http://www.w3.org/2000/svg">
<g filter="url(#filter0_d_10_505)">
<path d="M28.1403 11.7867C28.1403 6.13497 33.8418 2.26522 39.0942 4.35204L173.716 57.8381C175.595 58.5848 177.688 58.592 179.573 57.858L317.237 4.24611C322.482 2.20356 328.14 6.07223 328.14 11.7008V237C328.14 241.418 324.559 245 320.14 245H36.1403C31.722 245 28.1403 241.418 28.1403 237V11.7867Z" fill="url(#paint0_linear_10_505)" fill-opacity="0.5" shape-rendering="crispEdges"/>
</g>
<g filter="url(#filter1_d_10_505)">
<path d="M28.1403 11.7867C28.1403 6.13497 33.8418 2.26522 39.0942 4.35204L173.716 57.8381C175.595 58.5848 177.688 58.592 179.573 57.858L317.237 4.24611C322.482 2.20356 328.14 6.07223 328.14 11.7008V237C328.14 241.418 324.559 245 320.14 245H36.1403C31.722 245 28.1403 241.418 28.1403 237V11.7867Z" fill="url(#paint1_linear_10_505)" fill-opacity="0.5" shape-rendering="crispEdges"/>
</g>
<g filter="url(#filter2_d_10_505)">
<path d="M28.1403 11.7867C28.1403 6.13497 33.8418 2.26522 39.0942 4.35204L173.716 57.8381C175.595 58.5848 177.688 58.592 179.573 57.858L317.237 4.24611C322.482 2.20356 328.14 6.07223 328.14 11.7008V237C328.14 241.418 324.559 245 320.14 245H36.1403C31.722 245 28.1403 241.418 28.1403 237V11.7867Z" fill="url(#paint2_linear_10_505)" fill-opacity="0.5" shape-rendering="crispEdges"/>
</g>
<path d="M39.3265 66.8345C38.7047 67.0297 38.0761 66.555 38.0927 65.9036L39.2126 22.2417C39.2329 21.4637 40.1289 21.0392 40.7441 21.516L81.9495 53.4505L39.3265 66.8345Z" fill="#CE9419" stroke="black" stroke-width="0.1"/>
<ellipse cx="114.64" cy="104" rx="8" ry="13" fill="#1E1E1E"/>
<path d="M186.219 146.5C190.719 152 183.085 159 179.219 159C175.353 159 167.219 154.5 172.219 146.5C177.219 138.5 175.353 134 179.219 134C183.085 134 181.719 141 186.219 146.5Z" fill="#FE3185"/>
<rect x="7.74255" y="134" width="60" height="7" rx="3.5" transform="rotate(26.3067 7.74255 134)" fill="#F06D54"/>
<rect x="58.169" y="181.288" width="60" height="7" rx="3.5" transform="rotate(157.701 58.169 181.288)" fill="#F06D54"/>
<rect x="356.164" y="203.936" width="60" height="7" rx="3.5" transform="rotate(-163.17 356.164 203.936)" fill="#F06D54"/>
<rect x="298.64" y="165.596" width="60" height="7" rx="3.5" transform="rotate(-31.776 298.64 165.596)" fill="#F06D54"/>
<path d="M319.596 16.5L315.76 61.1057C315.702 61.7892 314.988 62.2119 314.36 61.9349L274.404 44.2978C273.654 43.9669 273.599 42.9241 274.31 42.5159L319.596 16.5Z" fill="#CE9419"/>
<path d="M214.839 172C217.903 176.881 219.64 182.445 219.64 188.353C219.64 207.683 201.06 223.353 178.14 223.353C155.221 223.353 136.64 207.683 136.64 188.353C136.64 182.753 138.202 177.463 140.973 172.77C145.152 178.505 152.843 182.353 161.64 182.353C167.788 182.353 173.394 180.473 177.64 177.385C181.887 180.473 187.493 182.353 193.64 182.353C202.826 182.353 210.804 178.159 214.839 172Z" fill="url(#paint3_linear_10_505)"/>
<ellipse cx="239.64" cy="104" rx="8" ry="13" fill="#1E1E1E"/>
<defs>
<filter id="filter0_d_10_505" x="24.1403" y="3.69314" width="308" height="249.307" filterUnits="userSpaceOnUse" color-interpolation-filters="sRGB">
<feFlood flood-opacity="0" result="BackgroundImageFix"/>
<feColorMatrix in="SourceAlpha" type="matrix" values="0 0 0 0 0 0 0 0 0 0 0 0 0 0 0 0 0 0 127 0" result="hardAlpha"/>
<feOffset dy="4"/>
<feGaussianBlur stdDeviation="2"/>
<feComposite in2="hardAlpha" operator="out"/>
<feColorMatrix type="matrix" values="0 0 0 0 0 0 0 0 0 0 0 0 0 0 0 0 0 0 0.25 0"/>
<feBlend mode="normal" in2="BackgroundImageFix" result="effect1_dropShadow_10_505"/>
<feBlend mode="normal" in="SourceGraphic" in2="effect1_dropShadow_10_505" result="shape"/>
</filter>
<filter id="filter1_d_10_505" x="24.1403" y="3.69314" width="308" height="249.307" filterUnits="userSpaceOnUse" color-interpolation-filters="sRGB">
<feFlood flood-opacity="0" result="BackgroundImageFix"/>
<feColorMatrix in="SourceAlpha" type="matrix" values="0 0 0 0 0 0 0 0 0 0 0 0 0 0 0 0 0 0 127 0" result="hardAlpha"/>
<feOffset dy="4"/>
<feGaussianBlur stdDeviation="2"/>
<feComposite in2="hardAlpha" operator="out"/>
<feColorMatrix type="matrix" values="0 0 0 0 0 0 0 0 0 0 0 0 0 0 0 0 0 0 0.25 0"/>
<feBlend mode="normal" in2="BackgroundImageFix" result="effect1_dropShadow_10_505"/>
<feBlend mode="normal" in="SourceGraphic" in2="effect1_dropShadow_10_505" result="shape"/>
</filter>
<filter id="filter2_d_10_505" x="24.1403" y="3.69314" width="308" height="249.307" filterUnits="userSpaceOnUse" color-interpolation-filters="sRGB">
<feFlood flood-opacity="0" result="BackgroundImageFix"/>
<feColorMatrix in="SourceAlpha" type="matrix" values="0 0 0 0 0 0 0 0 0 0 0 0 0 0 0 0 0 0 127 0" result="hardAlpha"/>
<feOffset dy="4"/>
<feGaussianBlur stdDeviation="2"/>
<feComposite in2="hardAlpha" operator="out"/>
<feColorMatrix type="matrix" values="0 0 0 0 0 0 0 0 0 0 0 0 0 0 0 0 0 0 0.25 0"/>
<feBlend mode="normal" in2="BackgroundImageFix" result="effect1_dropShadow_10_505"/>
<feBlend mode="normal" in="SourceGraphic" in2="effect1_dropShadow_10_505" result="shape"/>
</filter>
<linearGradient id="paint0_linear_10_505" x1="167.64" y1="0" x2="167.64" y2="245" gradientUnits="userSpaceOnUse">
<stop stop-color="#FCC63E"/>
<stop offset="0.0769231" stop-color="#FCC53F" stop-opacity="0.995465"/>
<stop offset="0.153846" stop-color="#FCC340" stop-opacity="0.99093"/>
<stop offset="0.192308" stop-color="#FCC340" stop-opacity="0.988662"/>
<stop offset="0.747298" stop-color="#FDBA46" stop-opacity="0.955943"/>
<stop offset="1" stop-color="#FF806B" stop-opacity="0.75"/>
</linearGradient>
<linearGradient id="paint1_linear_10_505" x1="167.64" y1="0" x2="167.64" y2="245" gradientUnits="userSpaceOnUse">
<stop stop-color="#FCC63E"/>
<stop offset="0.0769231" stop-color="#FCC53F" stop-opacity="0.995465"/>
<stop offset="0.153846" stop-color="#FCC340" stop-opacity="0.99093"/>
<stop offset="0.192308" stop-color="#FCC340" stop-opacity="0.988662"/>
<stop offset="0.747298" stop-color="#FDBA46" stop-opacity="0.955943"/>
<stop offset="1" stop-color="#FF806B" stop-opacity="0.75"/>
</linearGradient>
<linearGradient id="paint2_linear_10_505" x1="167.64" y1="0" x2="167.64" y2="245" gradientUnits="userSpaceOnUse">
<stop stop-color="#FCC63E"/>
<stop offset="0.0769231" stop-color="#FCC53F" stop-opacity="0.995465"/>
<stop offset="0.153846" stop-color="#FCC340" stop-opacity="0.99093"/>
<stop offset="0.192308" stop-color="#FCC340" stop-opacity="0.988662"/>
<stop offset="0.747298" stop-color="#FDBA46" stop-opacity="0.955943"/>
<stop offset="1" stop-color="#FF806B" stop-opacity="0.75"/>
</linearGradient>
<linearGradient id="paint3_linear_10_505" x1="178.14" y1="172" x2="178.14" y2="223.353" gradientUnits="userSpaceOnUse">
<stop stop-color="#6E2976"/>
<stop offset="1" stop-color="#D91F30"/>
</linearGradient>
</defs>
</svg>
