<svg width="275" height="283" viewBox="0 0 275 283" fill="none" xmlns="http://www.w3.org/2000/svg">
<path d="M227.22 268.625C227.22 268.625 111.246 63.892 111.228 63.8633L104.57 52.2811C99.525 66.5144 86.7388 96.8114 87.0246 97.2331C78.8559 84.617 41.7529 28.3876 42.1698 27.968C32.9715 37.2233 23.7731 46.4786 14.575 55.7337L33.8438 80.4832L102.055 171.826L119.142 126.593L227.22 268.625Z" fill="#B4E61F"/>
<rect x="144.387" width="141.848" height="59" rx="8" transform="rotate(36.6279 144.387 0)" fill="#6B6B6B"/>
<rect x="198.296" y="19.2629" width="33" height="267" rx="16.5" transform="rotate(36.6279 198.296 19.2629)" fill="#8C5D3B"/>
<path d="M195.187 40.6258C195.185 40.2637 195.04 39.9171 194.783 39.6621C194.526 39.4072 194.178 39.2648 193.816 39.2664C193.454 39.2679 193.107 39.4132 192.852 39.6703C192.597 39.9274 192.455 40.2753 192.456 40.6373C192.456 40.6373 192.456 40.6373 192.456 40.6373C192.455 40.9005 192.456 40.8159 192.428 40.9156C192.296 41.2778 191.641 42.0345 191.046 42.6287C191.043 42.6319 191.039 42.6352 191.036 42.6385C188.422 45.1978 185.447 47.6473 182.568 50.11C182.368 50.2801 182.168 50.4502 181.967 50.6206C181.691 50.8549 181.519 51.1893 181.49 51.5501C181.46 51.911 181.575 52.2688 181.81 52.5449C182.044 52.8209 182.378 52.9926 182.739 53.0221C183.1 53.0516 183.458 52.9365 183.734 52.7022C183.734 52.7022 183.734 52.7022 183.734 52.7022C183.935 52.5318 184.135 52.3617 184.336 52.1913C187.234 49.7086 190.153 47.3208 192.975 44.5607C192.979 44.557 192.983 44.5533 192.986 44.5497C193.666 43.8154 194.372 43.2439 194.977 41.8961C195.146 41.5045 195.201 40.8875 195.187 40.6258Z" fill="black"/>
<path d="M196.122 63.1411C196.377 62.9668 196.552 62.6986 196.609 62.3952C196.666 62.0919 196.6 61.7785 196.426 61.5237C196.252 61.269 195.983 61.094 195.68 61.037C195.377 60.9801 195.063 61.046 194.808 61.2203C194.808 61.2203 194.808 61.2203 194.808 61.2203C194.61 61.3545 194.317 61.5287 194.05 61.6876C191.07 63.4466 187.988 65.2733 185.39 67.9213L185.283 68.0507C185.28 68.055 185.277 68.0592 185.274 68.0635C184.262 69.4522 183.641 71.1203 183.349 72.6937L183.333 72.8183C183.333 72.8202 183.333 72.8221 183.333 72.824C183.253 73.7703 183.301 74.6393 183.352 75.4841C183.373 75.8138 183.397 76.139 183.42 76.4605C183.445 76.8036 183.604 77.1217 183.866 77.3448C184.128 77.568 184.47 77.6777 184.816 77.6502C185.162 77.6226 185.482 77.46 185.705 77.1982C185.928 76.9365 186.036 76.597 186.006 76.2544C186.006 76.2544 186.006 76.2544 186.006 76.2544C185.977 75.9333 185.95 75.6159 185.926 75.3026C185.864 74.5031 185.82 73.7187 185.862 73.0188C185.862 73.0174 185.862 73.016 185.862 73.0146L185.847 73.1391C186.071 71.7517 186.402 70.4749 187.17 69.4127C187.172 69.4094 187.174 69.4061 187.177 69.4028L187.07 69.5322C189.332 67.2172 192.268 65.4327 195.238 63.6888C195.52 63.52 195.798 63.3594 196.122 63.1411Z" fill="black"/>
<path d="M160.935 85.1077C160.891 84.8073 160.729 84.5369 160.486 84.3558C160.242 84.1747 159.936 84.0978 159.636 84.142C159.336 84.1861 159.065 84.3478 158.884 84.5914C158.703 84.835 158.626 85.1406 158.67 85.4409C158.67 85.4409 158.67 85.4409 158.67 85.4409C158.674 85.4884 158.651 85.2674 158.686 85.1479C158.716 85.0194 158.749 84.9693 158.762 84.9438C158.79 84.8983 158.77 84.9322 158.742 84.9631C158.553 85.1789 158.197 85.4925 157.871 85.7704C157.867 85.7733 157.864 85.7761 157.861 85.779C155.981 87.3481 153.967 88.8867 151.991 90.4282C151.861 90.5296 151.73 90.6308 151.6 90.7322C151.36 90.9185 151.204 91.1923 151.166 91.4935C151.129 91.7947 151.212 92.0985 151.398 92.3382C151.585 92.5779 151.858 92.7338 152.16 92.7716C152.461 92.8094 152.765 92.726 153.004 92.5398C153.004 92.5398 153.004 92.5398 153.004 92.5398C153.135 92.4383 153.265 92.3371 153.396 92.2357C155.381 90.6858 157.364 89.1742 159.343 87.5235C159.346 87.5204 159.35 87.5173 159.353 87.5143C159.721 87.1958 160.059 86.9228 160.476 86.457C160.555 86.3638 160.64 86.2669 160.75 86.0782C160.804 85.9808 160.871 85.8566 160.92 85.6463C160.974 85.4466 160.945 85.1414 160.935 85.1077Z" fill="black"/>
<path d="M173.21 69.0353C173.289 68.7956 173.269 68.5345 173.155 68.3093C173.041 68.0842 172.843 67.9134 172.603 67.8347C172.363 67.7559 172.102 67.7756 171.877 67.8893C171.652 68.0031 171.481 68.2017 171.403 68.4413C171.403 68.4413 171.403 68.4413 171.403 68.4413C171.347 68.6089 171.292 68.7772 171.237 68.9462C170.808 70.2495 170.407 71.6066 170.122 72.9845C170.122 72.9845 170.122 72.9846 170.122 72.9847C169.744 74.8185 169.517 76.6323 169.284 78.4347C169.261 78.6102 169.239 78.7852 169.216 78.9603C169.185 79.2106 169.253 79.4632 169.408 79.6627C169.562 79.8623 169.789 79.9923 170.04 80.0242C170.29 80.0561 170.543 79.9873 170.742 79.833C170.942 79.6786 171.072 79.4513 171.104 79.2011C171.126 79.0259 171.148 78.8512 171.171 78.6763C171.402 76.8821 171.629 75.0933 171.984 73.3737C171.984 73.3737 171.984 73.3736 171.984 73.3736C172.252 72.0811 172.623 70.8209 173.045 69.5364C173.1 69.3699 173.155 69.2029 173.21 69.0353Z" fill="black"/>
<path d="M171.659 97.3314C171.835 97.0953 171.909 96.7991 171.867 96.508C171.824 96.2169 171.667 95.9548 171.431 95.7792C171.195 95.6037 170.899 95.5292 170.608 95.572C170.316 95.6148 170.054 95.7715 169.879 96.0077C169.772 96.1528 169.678 96.2688 169.556 96.4135C169.166 96.8762 168.74 97.3549 168.32 97.8281C168.32 97.8281 168.32 97.8281 168.32 97.8282C166.419 99.9588 164.491 102.089 162.572 104.216C162.442 104.361 162.312 104.505 162.181 104.65C161.984 104.868 161.882 105.156 161.897 105.45C161.912 105.744 162.043 106.02 162.261 106.217C162.48 106.414 162.768 106.516 163.061 106.501C163.355 106.486 163.631 106.355 163.828 106.137C163.828 106.137 163.828 106.137 163.828 106.137C163.959 105.992 164.089 105.848 164.22 105.703C166.14 103.574 168.064 101.448 169.977 99.303C169.977 99.3029 169.977 99.3029 169.977 99.3029C170.404 98.822 170.826 98.3494 171.256 97.8395C171.385 97.6862 171.536 97.5 171.659 97.3314Z" fill="black"/>
<path d="M147.106 114.562C147.378 114.424 147.584 114.184 147.68 113.894C147.775 113.604 147.751 113.289 147.614 113.016C147.476 112.744 147.236 112.538 146.946 112.442C146.656 112.347 146.34 112.371 146.068 112.508C146.068 112.508 146.068 112.508 146.068 112.508C146.044 112.519 145.926 112.583 145.86 112.632C145.788 112.683 145.74 112.724 145.699 112.76C145.62 112.83 145.569 112.883 145.522 112.933C145.428 113.031 145.353 113.117 145.279 113.202C144.896 113.65 144.561 114.076 144.216 114.512C144.215 114.513 144.214 114.514 144.214 114.514C142.288 116.971 140.411 119.434 138.522 121.897C138.399 122.058 138.276 122.218 138.152 122.379C137.967 122.622 137.885 122.928 137.925 123.23C137.965 123.533 138.124 123.807 138.366 123.992C138.608 124.178 138.914 124.26 139.216 124.22C139.519 124.179 139.793 124.021 139.979 123.779C139.979 123.779 139.979 123.779 139.979 123.779C140.102 123.618 140.225 123.457 140.348 123.296C142.235 120.837 144.12 118.363 146.02 115.939C146.021 115.939 146.021 115.938 146.022 115.937C146.357 115.514 146.697 115.084 147.021 114.705C147.081 114.637 147.14 114.569 147.186 114.521C147.208 114.498 147.229 114.478 147.225 114.482C147.223 114.484 147.213 114.493 147.183 114.514C147.158 114.534 147.084 114.574 147.106 114.562Z" fill="black"/>
<path d="M116.771 145.169C116.825 144.849 116.75 144.521 116.562 144.257C116.374 143.993 116.089 143.814 115.769 143.76C115.449 143.706 115.121 143.781 114.857 143.969C114.593 144.157 114.414 144.442 114.36 144.762C114.36 144.762 114.36 144.762 114.36 144.762C114.325 144.971 114.29 145.179 114.254 145.388C113.857 147.84 113.395 150.274 113.325 152.927C113.325 152.928 113.325 152.93 113.325 152.931C113.288 154.365 113.554 155.954 114.075 157.284C114.152 157.494 114.23 157.698 114.307 157.895C114.423 158.198 114.655 158.441 114.952 158.573C115.248 158.704 115.585 158.712 115.887 158.596C116.19 158.479 116.434 158.247 116.565 157.95C116.696 157.654 116.705 157.317 116.588 157.015C116.588 157.015 116.588 157.015 116.588 157.015C116.512 156.818 116.438 156.626 116.369 156.44C115.927 155.281 115.75 154.196 115.77 152.962C115.77 152.961 115.77 152.96 115.77 152.959C115.825 150.667 116.268 148.216 116.666 145.794C116.701 145.586 116.736 145.377 116.771 145.169Z" fill="black"/>
<path d="M138.806 137.097C138.966 136.844 139.019 136.538 138.954 136.246C138.889 135.954 138.71 135.7 138.457 135.539C138.204 135.379 137.898 135.325 137.606 135.391C137.314 135.456 137.06 135.635 136.899 135.888C136.899 135.888 136.899 135.888 136.899 135.888C136.816 136.018 136.734 136.148 136.651 136.279C135.162 138.625 133.673 140.972 132.185 143.319C132.102 143.449 132.019 143.58 131.937 143.71C131.776 143.963 131.723 144.269 131.788 144.561C131.854 144.853 132.032 145.108 132.285 145.268C132.538 145.428 132.844 145.482 133.136 145.416C133.428 145.351 133.683 145.172 133.843 144.919C133.843 144.919 133.843 144.919 133.843 144.919C133.926 144.789 134.009 144.659 134.091 144.528C135.58 142.182 137.069 139.835 138.558 137.488C138.64 137.358 138.723 137.228 138.806 137.097Z" fill="black"/>
<path d="M94.6784 176.947C94.9187 176.911 95.1352 176.782 95.2801 176.587C95.4251 176.392 95.4866 176.148 95.4512 175.907C95.4159 175.667 95.2864 175.45 95.0915 175.305C94.8965 175.161 94.6519 175.099 94.4116 175.134C94.4116 175.134 94.4116 175.134 94.4116 175.134C94.3999 175.134 94.2265 175.165 94.1115 175.223C93.9916 175.28 93.9182 175.339 93.8658 175.383C93.7631 175.474 93.7223 175.529 93.6822 175.578C93.6087 175.672 93.5653 175.74 93.5231 175.806C93.317 176.14 93.1761 176.419 93.0224 176.714C93.0212 176.717 93.0199 176.719 93.0186 176.722C92.1576 178.421 91.3634 180.106 90.5509 181.796C90.4983 181.906 90.4457 182.016 90.393 182.126C90.2881 182.345 90.2745 182.597 90.3552 182.826C90.436 183.055 90.6044 183.243 90.8235 183.348C91.0427 183.453 91.2945 183.466 91.5236 183.385C91.7527 183.305 91.9404 183.136 92.0453 182.917C92.0453 182.917 92.0453 182.917 92.0453 182.917C92.098 182.807 92.1506 182.697 92.2033 182.587C93.0126 180.903 93.8169 179.2 94.6481 177.559C94.6493 177.557 94.6505 177.555 94.6517 177.552C94.7925 177.279 94.9425 176.993 95.0727 176.784C95.0953 176.747 95.1198 176.713 95.1207 176.712C95.1186 176.713 95.1174 176.722 95.0609 176.772C95.0316 176.797 94.983 176.837 94.8907 176.881C94.8032 176.927 94.66 176.951 94.6784 176.947Z" fill="black"/>
<path d="M92.3222 200.293C92.4869 200.072 92.5568 199.794 92.5166 199.521C92.4764 199.248 92.3294 199.002 92.1078 198.837C91.8862 198.672 91.6083 198.602 91.3351 198.642C91.062 198.683 90.816 198.83 90.6513 199.051C90.5577 199.178 90.4875 199.269 90.4079 199.361C90.0751 199.745 89.5775 200.158 89.0839 200.555C89.0837 200.555 89.0834 200.555 89.0832 200.555C87.4292 201.86 85.6614 203.128 83.9215 204.402C83.795 204.494 83.6684 204.587 83.5417 204.679C83.3186 204.842 83.1692 205.086 83.1264 205.359C83.0837 205.632 83.151 205.91 83.3137 206.133C83.4763 206.356 83.7209 206.506 83.9937 206.549C84.2664 206.591 84.545 206.524 84.7681 206.361C84.8949 206.269 85.0215 206.177 85.1481 206.084C86.8958 204.805 88.6443 203.552 90.3832 202.181C90.3834 202.181 90.3837 202.181 90.384 202.181C90.9162 201.748 91.4468 201.331 91.9843 200.721C92.1095 200.577 92.2295 200.419 92.3222 200.293Z" fill="black"/>
<path d="M104.941 172.649C105.054 172.429 105.075 172.172 104.999 171.936C104.923 171.7 104.757 171.503 104.536 171.39C104.315 171.277 104.058 171.256 103.822 171.332C103.586 171.408 103.39 171.574 103.276 171.795C103.276 171.795 103.276 171.795 103.276 171.795C103.229 171.888 103.181 171.98 103.134 172.073C102.279 173.739 101.423 175.406 100.568 177.072C100.521 177.165 100.473 177.258 100.426 177.35C100.312 177.571 100.291 177.828 100.367 178.064C100.443 178.3 100.61 178.496 100.831 178.61C101.052 178.723 101.308 178.744 101.544 178.668C101.781 178.592 101.977 178.425 102.09 178.205C102.09 178.205 102.09 178.205 102.09 178.205C102.138 178.112 102.185 178.019 102.233 177.927C103.088 176.26 103.943 174.594 104.798 172.927C104.846 172.835 104.893 172.742 104.941 172.649Z" fill="black"/>
<path d="M61.0031 218.547C60.718 218.496 60.4245 218.561 60.1871 218.727C59.9497 218.893 59.7879 219.146 59.7373 219.431C59.6867 219.716 59.7515 220.01 59.9173 220.247C60.0831 220.484 60.3364 220.646 60.6216 220.697C60.6216 220.697 60.6216 220.697 60.6216 220.697C60.6397 220.694 60.5707 220.711 60.3405 220.593C60.0923 220.488 59.8352 220.067 59.8275 219.885C59.7844 219.508 59.8425 219.523 59.8411 219.482C59.8551 219.441 59.8366 219.493 59.8148 219.535C59.6999 219.766 59.5051 220.082 59.3214 220.373C59.3138 220.385 59.306 220.397 59.2982 220.41C58.0023 222.416 56.5939 224.43 55.2169 226.438C55.1281 226.567 55.0394 226.696 54.9505 226.825C54.7863 227.064 54.7236 227.358 54.7761 227.642C54.8287 227.927 54.9922 228.179 55.2307 228.343C55.4692 228.508 55.7632 228.57 56.0479 228.518C56.3327 228.465 56.5849 228.302 56.7491 228.063C56.7491 228.063 56.7491 228.063 56.7491 228.063C56.838 227.934 56.9267 227.805 57.0156 227.676C58.3985 225.659 59.7879 223.675 61.1416 221.58C61.15 221.567 61.1584 221.554 61.1666 221.541C61.3692 221.217 61.5643 220.914 61.7749 220.497C61.8219 220.398 61.8693 220.308 61.9301 220.117C61.9504 220.001 62.0294 219.94 61.974 219.484C61.9601 219.264 61.6799 218.806 61.3966 218.682C61.1319 218.546 61.0234 218.556 61.0031 218.547Z" fill="black"/>
<path d="M79.6389 218.648C79.8648 218.448 80.002 218.167 80.0205 217.866C80.039 217.565 79.9372 217.269 79.7375 217.044C79.5378 216.818 79.2566 216.68 78.9557 216.662C78.6548 216.643 78.3588 216.745 78.133 216.945C78.133 216.945 78.133 216.945 78.133 216.945C78.0086 217.055 77.8841 217.165 77.7597 217.275C75.5201 219.255 73.2804 221.236 71.0408 223.216C70.9163 223.326 70.7919 223.436 70.6675 223.546C70.4416 223.746 70.3044 224.027 70.2859 224.328C70.2674 224.629 70.3692 224.925 70.5689 225.151C70.7686 225.376 71.0498 225.514 71.3507 225.532C71.6516 225.551 71.9476 225.449 72.1734 225.249C72.1734 225.249 72.1734 225.249 72.1734 225.249C72.2979 225.139 72.4223 225.029 72.5467 224.919C74.7864 222.939 77.026 220.958 79.2657 218.978C79.3901 218.868 79.5145 218.758 79.6389 218.648Z" fill="black"/>
</svg>
